#!OML:ASF C:\Vicon Data\Big\jianyuan-13\jianyuan\Session 1\Capture.male.ASF
:FULLY-SPECIFIED
:DEGREES
181
root -6.451508 17.719773 -10.713604 0.940849 4.125157 1.858897
lowerback -10.147521 -0.020111 -5.272668 
upperback 1.546248 0.814198 -1.410842 
thorax 7.300818 0.238159 1.614599 
lowerneck -5.518090 -1.908048 3.898162 
upperneck 11.512569 -2.810380 -3.609367 
head 4.237787 -1.530627 -1.897980 
rclavicle 0.000000 0.000000 
rhumerus -38.543839 -15.965671 -80.776689 
rradius 37.749049 
rwrist 25.713731 
rhand -19.296990 -19.268114 
rfingers 0.000000 
rthumb 7.018445 -49.131787 
lclavicle 0.000000 0.000000 
lhumerus -36.010355 39.455219 69.231143 
lradius 24.016228 
lwrist -65.234844 
lhand -19.952489 0.194759 
lfingers 0.000000 
lthumb 6.385641 30.078493 
rfemur -44.589317 -20.841344 15.922044 
rtibia 101.710866 
rfoot -6.165120 -1.977130 
rtoes -34.149225 
lfemur -14.766749 -1.615814 -25.344593 
ltibia 19.707087 
lfoot -11.005220 4.252397 
ltoes -27.680989 
182
root -6.443692 17.719680 -10.694322 1.041812 4.567293 1.773722
lowerback -9.856988 -0.197643 -5.362611 
upperback 1.505775 0.561140 -1.357153 
thorax 7.106874 0.114393 1.679461 
lowerneck -5.432801 -1.891674 3.959590 
upperneck 11.360343 -2.781014 -3.663282 
head 4.176446 -1.514112 -1.919458 
rclavicle 0.000000 0.000000 
rhumerus -38.540892 -16.124209 -80.655305 
rradius 37.907846 
rwrist 26.111084 
rhand -18.837261 -19.035053 
rfingers 0.000000 
rthumb 7.462194 -48.883496 
lclavicle 0.000000 0.000000 
lhumerus -35.056918 39.053191 70.001990 
lradius 24.180713 
lwrist -64.996343 
lhand -19.855987 -0.111494 
lfingers 0.000000 
lthumb 6.478888 29.769427 
rfemur -47.236670 -21.645486 16.514976 
rtibia 103.597118 
rfoot -6.873556 -1.762320 
rtoes -34.073392 
lfemur -14.725921 -1.658832 -25.335763 
ltibia 19.491117 
lfoot -10.737581 4.075186 
ltoes -28.554208 
183
root -6.414607 17.729762 -10.635683 0.645051 4.429870 2.214553
lowerback -9.561957 -0.194952 -5.731620 
upperback 1.700680 0.614518 -1.485031 
thorax 7.143409 0.127612 1.758058 
lowerneck -5.388911 -1.870877 3.874124 
upperneck 10.922373 -2.770738 -3.479115 
head 4.489446 -1.487056 -2.040525 
rclavicle 0.000000 0.000000 
rhumerus -38.491540 -15.701426 -80.867542 
rradius 38.054822 
rwrist 25.634194 
rhand -19.219119 -19.285120 
rfingers 0.000000 
rthumb 7.093667 -49.146248 
lclavicle 0.000000 0.000000 
lhumerus -33.968460 38.296671 71.044266 
lradius 24.354601 
lwrist -64.180937 
lhand -19.900899 0.077353 
lfingers 0.000000 
lthumb 6.435495 29.959589 
rfemur -48.906634 -22.094888 15.980929 
rtibia 105.229148 
rfoot -7.723586 -1.164621 
rtoes -33.703218 
lfemur -13.735400 -1.922039 -25.924111 
ltibia 19.082319 
lfoot -11.151032 4.434963 
ltoes -27.542191 
184
root -6.400886 17.736739 -10.603705 0.603141 4.705696 2.028104
lowerback -9.354925 -0.258470 -5.574100 
upperback 1.773488 0.492202 -1.449722 
thorax 7.111160 0.071444 1.686936 
lowerneck -5.390603 -1.880894 3.955903 
upperneck 10.799707 -2.777222 -3.554960 
head 4.443512 -1.488116 -2.078585 
rclavicle 0.000000 0.000000 
rhumerus -38.372228 -15.981047 -80.811165 
rradius 38.128381 
rwrist 25.765437 
rhand -19.278456 -19.263506 
rfingers 0.000000 
rthumb 7.036382 -49.126597 
lclavicle 0.000000 0.000000 
lhumerus -32.777566 37.622821 72.067576 
lradius 24.522070 
lwrist -63.498529 
lhand -19.951318 0.061416 
lfingers 0.000000 
lthumb 6.386816 29.945118 
rfemur -51.308044 -22.616203 16.645461 
rtibia 106.704983 
rfoot -8.539436 -1.125370 
rtoes -33.793631 
lfemur -13.504174 -1.901096 -25.791467 
ltibia 18.888664 
lfoot -11.037568 4.224150 
ltoes -27.296570 
